Coordinates
version=1
nRows=8
nColumns=46
inDegrees=yes

Units are S.I. units (second, meters, Newtons, ...)
Angles are in degrees.

endheader
time	pelvis_tilt	pelvis_list	pelvis_rotation	pelvis_tx	pelvis_ty	pelvis_tz	bb_angle	bb_tx	bb_ty	bb_tz	hip_flexion_r	hip_adduction_r	hip_rotation_r	knee_angle_r	knee_angle_r_beta	ankle_angle_r	subtalar_angle_r	mtp_angle_r	crank_angle_r	hip_flexion_l	hip_adduction_l	hip_rotation_l	knee_angle_l	knee_angle_l_beta	ankle_angle_l	subtalar_angle_l	mtp_angle_l	crank_angle_l	lumbar_extension	lumbar_bending	lumbar_rotation	arm_flex_r	arm_add_r	arm_rot_r	elbow_flex_r	pro_sup_r	wrist_flex_r	wrist_dev_r	arm_flex_l	arm_add_l	arm_rot_l	elbow_flex_l	pro_sup_l	wrist_flex_l	wrist_dev_l
      2.50500000	    -25.13657794	     10.07651046	      2.27765065	      0.28025220	      1.06247130	     -0.22531086	      0.00000000	      0.50000000	      0.00000000	      0.25000000	     43.67776683	    -17.33497998	     -5.61002368	     28.33088203	      0.49446717	    -20.41362908	      4.32045475	      0.00000000	      0.00000000	     77.66222091	     -1.38844465	     -7.09296824	    113.47755064	      1.98055689	     -5.37723473	     -6.90259269	      0.00000000	      0.00000000	    -51.64627642	     -5.97997484	     -9.09863791	     57.36350418	    -15.28962634	     18.32446010	     80.49298673	     51.40752150	      0.00000000	      0.00000000	     60.47879755	    -19.17181651	     21.74403784	     77.69173881	     51.10069042	      0.00000000	      0.00000000
      2.51000000	    -25.22756814	     10.41254895	      2.77115283	      0.28131985	      1.06193721	     -0.22534204	      0.00000000	      0.50000000	      0.00000000	      0.25000000	     42.89530932	    -17.94940816	     -5.88970372	     27.75940418	      0.48449300	    -21.22632171	      4.46605964	      0.00000000	      0.00000000	     78.63401518	     -1.25355334	     -7.41977763	    114.15974617	      1.99246344	     -4.62630463	     -6.71232101	      0.00000000	      0.00000000	    -51.50714175	     -6.18878092	     -9.60843799	     56.94182417	    -15.49144433	     18.33174947	     80.40044291	     51.39490995	      0.00000000	      0.00000000	     60.47995851	    -19.14286033	     21.84286465	     77.69656263	     51.10269216	      0.00000000	      0.00000000
      2.51500000	    -25.29003969	     10.71098636	      3.30172469	      0.28214090	      1.06208912	     -0.22554305	      0.00000000	      0.50000000	      0.00000000	      0.25000000	     41.94730781	    -18.49859387	     -6.09697292	     26.92695780	      0.46996407	    -22.42200623	      4.35653537	      0.00000000	      0.00000000	     79.50864929	     -1.01890723	     -7.61527613	    114.64330852	      2.00090320	     -3.60835162	     -5.79135227	      0.00000000	      0.00000000	    -51.49271928	     -6.27843428	    -10.11185209	     56.60214709	    -15.67861900	     18.39783509	     80.46876249	     51.42806518	      0.00000000	      0.00000000	     60.62673405	    -19.30546069	     22.34838272	     77.59470650	     51.13075537	      0.00000000	      0.00000000
      2.52000000	    -25.52732626	     11.00292507	      3.84161174	      0.28274307	      1.06244935	     -0.22578084	      0.00000000	      0.50000000	      0.00000000	      0.25000000	     41.23851329	    -19.05896213	     -6.31636709	     26.18762683	      0.45706031	    -23.49720421	      4.51943088	      0.00000000	      0.00000000	     80.51401216	     -0.75177020	     -7.91497909	    114.92222378	      2.00577119	     -3.02111593	     -5.67656118	      0.00000000	      0.00000000	    -51.34173075	     -6.39062513	    -10.60953893	     56.37646799	    -15.80441727	     18.38449035	     80.37873853	     51.42093563	      0.00000000	      0.00000000	     60.76640258	    -19.32679619	     22.54630462	     77.58629133	     51.14796488	      0.00000000	      0.00000000
      2.52500000	    -25.75133283	     11.23643083	      4.42609638	      0.28314329	      1.06343322	     -0.22611569	      0.00000000	      0.50000000	      0.00000000	      0.25000000	     40.46471184	    -19.56697329	     -6.63054206	     25.34620995	      0.44237482	    -24.89450373	      4.45981213	      0.00000000	      0.00000000	     81.44962694	     -0.37060140	     -8.15803162	    114.96686701	      2.00655036	     -2.51161992	     -5.53470076	      0.00000000	      0.00000000	    -51.34872868	     -6.45102178	    -11.18780545	     56.24203450	    -15.90812570	     18.32813735	     80.25758880	     51.40360794	      0.00000000	      0.00000000	     60.95095584	    -19.41055803	     22.80171403	     77.56942174	     51.16910043	      0.00000000	      0.00000000
      2.53000000	    -25.95442348	     11.33567552	      4.84129373	      0.28359500	      1.06498996	     -0.22651603	      0.00000000	      0.50000000	      0.00000000	      0.25000000	     39.62305127	    -19.83530491	     -6.93684413	     24.26673037	      0.42353434	    -26.84985776	      4.12423556	      0.00000000	      0.00000000	     82.25176666	     -0.12161795	     -8.33671293	    114.87172038	      2.00488974	     -1.92590441	     -5.48180383	      0.00000000	      0.00000000	    -51.37653961	     -6.45638584	    -11.64458560	     56.30423390	    -15.84866536	     18.22676185	     79.97129899	     51.35876631	      0.00000000	      0.00000000	     61.15787413	    -19.72400982	     23.37475533	     77.58293153	     51.22703345	      0.00000000	      0.00000000
      2.53500000	    -26.25647704	     11.48868522	      5.43958532	      0.28367866	      1.06712037	     -0.22723984	      0.00000000	      0.50000000	      0.00000000	      0.25000000	     38.82980251	    -20.24224029	     -7.28455425	     23.12519987	      0.40361088	    -28.87715460	      3.80316713	      0.00000000	      0.00000000	     83.03395645	      0.43617026	     -8.58243211	    114.49154529	      1.99825443	     -1.12311254	     -5.58772095	      0.00000000	      0.00000000	    -51.45035318	     -6.37505315	    -12.25866140	     56.44509504	    -15.79822207	     18.14467361	     79.59097792	     51.30026613	      0.00000000	      0.00000000	     61.52618028	    -19.97877595	     23.87667437	     77.67185367	     51.28588902	      0.00000000	      0.00000000
      2.54000000	    -26.56397135	     11.60893904	      6.01426648	      0.28358336	      1.06973652	     -0.22807642	      0.00000000	      0.50000000	      0.00000000	      0.25000000	     38.05897988	    -20.59992420	     -7.70128896	     21.90104613	      0.38224536	    -31.22275460	      3.35795461	      0.00000000	      0.00000000	     83.70828745	      1.04063656	     -8.83189675	    113.95149524	      1.98882878	     -0.26549655	     -5.80908584	      0.00000000	      0.00000000	    -51.56702856	     -6.23776628	    -12.97415214	     56.82625923	    -15.54259063	     18.15078843	     78.94154843	     51.21713164	      0.00000000	      0.00000000	     61.99439269	    -20.50954435	     24.51940704	     77.80550843	     51.36164282	      0.00000000	      0.00000000
